<?xml version="1.0" encoding="UTF-8"?>
<svg width="375px" height="64px" viewBox="0 0 375 64" version="1.1" xmlns="http://www.w3.org/2000/svg" xmlns:xlink="http://www.w3.org/1999/xlink">
    <!-- Generator: Sketch 47.1 (45422) - http://www.bohemiancoding.com/sketch -->
    <title>Wager Top</title>
    <desc>Created with Sketch.</desc>
    <defs>
        <rect id="path-1" x="0" y="0" width="375" height="64"></rect>
        <filter x="-0.1%" y="-0.4%" width="100.1%" height="101.6%" filterUnits="objectBoundingBox" id="filter-2">
            <feOffset dx="0" dy="0.5" in="SourceAlpha" result="shadowOffsetOuter1"></feOffset>
            <feComposite in="shadowOffsetOuter1" in2="SourceAlpha" operator="out" result="shadowOffsetOuter1"></feComposite>
            <feColorMatrix values="0 0 0 0 0   0 0 0 0 0   0 0 0 0 0  0 0 0 0.3 0" type="matrix" in="shadowOffsetOuter1"></feColorMatrix>
        </filter>
    </defs>
    <g id="Symbols" stroke="none" stroke-width="1" fill="none" fill-rule="evenodd">
        <g id="Wager-Top">
            <g id="Bar">
                <use fill="black" fill-opacity="1" filter="url(#filter-2)" xlink:href="#path-1"></use>
                <use fill-opacity="0.9" fill="#F9F9F9" fill-rule="evenodd" xlink:href="#path-1"></use>
            </g>
            <text id="Wager" font-family="Noteworthy-Bold, Noteworthy" font-size="24" font-weight="bold" fill="#3BC446">
                <tspan x="154" y="49">Wager</tspan>
            </text>
            <g id="Page-1" transform="translate(18.000000, 27.000000)" fill="#3BC446">
                <path d="M15,0 C6.7164,0 0,6.7152 0,15 C0,23.2848 6.7164,30 15,30 C23.2848,30 30,23.2848 30,15 C30,6.7152 23.2848,0 15,0 M15,1.2 C22.6092,1.2 28.8,7.3908 28.8,15 C28.8,22.6092 22.6092,28.8 15,28.8 C7.3908,28.8 1.2,22.6092 1.2,15 C1.2,7.3908 7.3908,1.2 15,1.2" id="Fill-1"></path>
                <path d="M23.1818182,25.8236256 C23.167676,25.7164963 23.1358562,25.6212703 23.06161,25.5593734 C21.9809147,24.6559167 19.8513438,25.0903853 19.0617409,24.3845226 C17.9492258,23.3870302 18.2815661,20.5754825 18.2815661,20.5754825 C18.2815661,20.5754825 19.0240285,19.9719877 19.0841326,19.310167 C19.1324516,18.7864239 19.3881887,17.0783075 19.3881887,17.0783075 C19.3881887,17.0783075 19.8100959,16.772394 20.0422627,16.483145 C20.3486758,16.102241 20.1895767,15.4416106 20.2626444,15.0702292 C20.3368907,14.6976574 21.0734606,13.9537043 20.7788326,13.3585418 C20.4842047,12.7633793 20.1990048,12.8383697 20.1990048,12.8383697 C20.1990048,12.8383697 20.8283301,10.3803485 20.5572724,8.6722321 C20.4382427,7.92232732 19.8584149,6.57964068 18.8543228,5.83568753 C18.0552918,5.24290566 17.021737,4.77272727 15.2539693,4.77272727 L14.7849216,4.77272727 C13.0171539,4.77272727 11.9847776,5.24290566 11.184568,5.83568753 C10.180476,6.57964068 9.60064818,7.92232732 9.48161849,8.6722321 C9.21056078,10.3803485 9.83988608,12.8383697 9.83988608,12.8383697 C9.83988608,12.8383697 9.55468622,12.7633793 9.26005827,13.3585418 C8.96543032,13.9537043 9.7020002,14.6976574 9.77624644,15.0702292 C9.84931417,15.4416106 9.69021508,16.102241 9.99662815,16.483145 C10.228795,16.772394 10.6507022,17.0783075 10.6507022,17.0783075 C10.6507022,17.0783075 10.9064393,18.7864239 10.9547582,19.310167 C11.0148623,19.9719877 11.7573248,20.5754825 11.7573248,20.5754825 C11.7573248,20.5754825 12.0896651,23.3870302 10.97715,24.3845226 C10.1887256,25.0903853 8.05797623,24.6559167 6.97728091,25.5593734 C6.89714211,25.6260316 6.85118015,25.7283996 6.81818182,25.8462417 C9.0927096,27.5888776 11.9164239,28.6363636 14.9852686,28.6363636 C18.067077,28.6363636 20.9025764,27.5805453 23.1818182,25.8236256" id="Fill-3"></path>
            </g>
            <path d="M341.97805,45.5820957 L337.593271,46.85864 L338.544833,42.1500737 L338.542571,42.1478131 L351.115167,29.5843856 L352.274928,30.7433009 L339.705518,43.3035445 L340.82287,44.4205066 L353.393148,31.8607048 L354.552909,33.0196201 L341.98241,45.5796428 L341.983327,45.5805594 L341.980738,45.5813131 L341.979002,45.5830475 L341.97805,45.5820957 Z M341.97805,45.5820957 L341.980738,45.5813131 L341.98241,45.5796428 L340.82287,44.4205066 L340.819241,44.4241322 L341.97805,45.5820957 Z M338.544833,42.1500737 L339.702332,43.3067284 L339.705518,43.3035445 L338.545978,42.1444083 L338.544833,42.1500737 Z M356.515591,28.6463845 C357.155098,29.2854248 357.164271,30.3133892 356.526075,30.953739 L355.375487,32.1021782 L351.896204,28.6241228 L353.045481,27.4756836 C353.679746,26.8405718 354.708461,26.8392623 355.353209,27.4848502 L356.515591,28.6463845 Z M350.621122,55.6996578 L350.621122,38.8606841 L351.934207,37.5485563 L351.934207,57 L327,57 L327,32.3065925 L346.465639,32.3065925 L345.165658,33.6056252 L328.313085,33.6056252 L328.313085,55.6996578 L350.621122,55.6996578 Z" id="Create-Icon" fill="#3BC446"></path>
        </g>
    </g>
</svg>